<?xml version="1.0" encoding="UTF-8"?>
<!DOCTYPE svg PUBLIC "-//W3C//DTD SVG 1.1//EN" "http://www.w3.org/Graphics/SVG/1.1/DTD/svg11.dtd">
<!-- Creator: CorelDRAW 2018 (64-Bit) -->
<svg xmlns="http://www.w3.org/2000/svg" xml:space="preserve" width="142.886mm" height="23.9509mm" version="1.1" style="shape-rendering:geometricPrecision; text-rendering:geometricPrecision; image-rendering:optimizeQuality; fill-rule:evenodd; clip-rule:evenodd"
viewBox="0 0 14189.63 2378.5"
 xmlns:xlink="http://www.w3.org/1999/xlink">
 <defs>
  <style type="text/css">
   <![CDATA[
    .fil2 {fill:#27B86B}
    .fil1 {fill:#3DDB86}
    .fil0 {fill:#333333;fill-rule:nonzero}
    .fil3 {fill:#E0032F;fill-rule:nonzero}
    .fil4 {fill:#F05138;fill-rule:nonzero}
   ]]>
  </style>
 </defs>
 <g id="Слой_x0020_1">
  <metadata id="CorelCorpID_0Corel-Layer"/>
  <path class="fil0" d="M3706.57 877.86c-20.77,0 -41.99,1.81 -63.66,5.41 -21.67,3.61 -41.54,10.16 -59.59,19.64 -18.06,9.48 -32.96,22.57 -44.7,39.28 -11.74,16.71 -17.61,37.71 -17.61,62.99 0,37.93 12.64,66.59 37.93,86 25.28,19.41 55.53,34.09 90.75,44.02 25.28,7.22 50.8,13.99 76.53,20.32 25.73,6.32 49.44,11.74 71.1,16.26 37.93,8.12 73.83,18.05 107.68,29.79 33.86,11.74 63.44,27.32 88.72,46.73 25.28,19.41 45.37,43.79 60.27,73.14 14.91,29.35 22.35,65.69 22.35,109.03 0,51.47 -9.26,95.27 -27.77,131.38 -18.51,36.12 -43.57,65.92 -75.18,89.4 -31.6,23.48 -68.62,40.63 -111.07,51.46 -42.43,10.84 -88.04,16.26 -136.8,16.26 -49.66,0 -96.84,-5.19 -141.54,-15.57 -44.7,-10.39 -84.65,-27.09 -119.86,-50.12 -35.22,-23.02 -64.57,-52.59 -88.05,-88.71 -23.48,-36.12 -38.37,-79.47 -44.7,-130.03l162.54 0c7.22,27.09 18.97,49.66 35.21,67.73 16.26,18.05 35,32.5 56.21,43.34 21.22,10.83 44.02,18.51 68.4,23.03 24.38,4.51 48.31,6.77 71.79,6.77 25.28,0 49.66,-2.04 73.14,-6.1 23.48,-4.06 43.79,-11.06 60.94,-20.99 17.16,-9.93 31.15,-23.03 41.99,-39.28 10.84,-16.26 16.26,-37.48 16.26,-63.67 0,-36.12 -9.48,-62.52 -28.44,-79.23 -18.96,-16.71 -44.24,-29.13 -75.85,-37.25 -43.34,-12.64 -87.81,-23.7 -133.41,-33.19 -45.6,-9.47 -88.72,-21.9 -129.36,-37.24 -27.08,-9.94 -51.92,-21.68 -74.49,-35.22 -22.57,-13.55 -42.44,-29.79 -59.59,-48.76 -17.16,-18.96 -30.48,-41.31 -39.96,-67.04 -9.47,-25.73 -14.22,-55.76 -14.22,-90.07 0,-52.37 9.93,-96.39 29.8,-132.06 19.86,-35.67 45.82,-64.33 77.88,-86.01 32.06,-21.67 68.4,-37.24 109.04,-46.72 40.63,-9.48 82.17,-14.22 124.61,-14.22 45.15,0 88.04,5.19 128.67,15.57 40.63,10.39 76.74,26.42 108.35,48.08 31.6,21.67 57.11,49.66 76.53,83.97 19.41,34.31 30.92,75.85 34.54,124.61l-154.41 0c-3.6,-24.38 -11.06,-44.7 -22.34,-60.94 -11.29,-16.26 -25.28,-29.57 -41.99,-39.96 -16.7,-10.39 -35.9,-18.05 -57.57,-23.03 -21.67,-4.97 -44.7,-7.89 -69.08,-8.8zm6237.98 830.28l-70.43 -193.69 -434.78 0 -71.79 193.69 -170.66 0 362.99 -957.6 195.05 0 361.64 957.6 -172.02 0zm-119.19 -334.55l-167.95 -468.64 -169.31 468.64 337.26 0zm-5672.23 -379.25l170.66 0 148.99 549.91 161.18 -549.91 173.37 0 161.19 549.91 148.98 -549.91 165.25 0 -222.13 713.8 -181.49 0 -161.19 -525.52 -157.11 525.52 -186.92 0 -220.77 -713.8zm1306.64 -296.62c27.98,0 51.24,8.58 69.75,25.73 18.51,17.16 27.77,40.64 27.77,70.44 0,28.89 -9.26,51.92 -27.77,69.08 -18.51,17.15 -41.77,25.73 -69.75,25.73 -29.8,0 -53.74,-8.58 -71.79,-25.73 -18.06,-17.16 -27.09,-40.19 -27.09,-69.08 0,-29.8 9.03,-53.28 27.09,-70.44 18.05,-17.15 41.99,-25.73 71.79,-25.73zm-78.56 1010.42l0 -713.8 154.4 0 0 713.8 -154.4 0zm395.08 0l0 -579.71 -113.77 0 0 -134.09 113.77 0 0 -83.97c0,-79.46 18.74,-137.93 56.21,-175.4 37.48,-37.48 97.75,-56.21 180.83,-56.21l97.52 0 0 134.08 -88.05 0c-37.93,0 -63.21,9.93 -75.85,29.8 -12.64,19.86 -18.96,48.3 -18.96,85.32l0 66.37 182.85 0 0 134.09 -182.85 0 0 579.71 -151.7 0zm651.08 -713.8l180.14 0 0 134.09 -180.14 0 0 326.42c0,40.64 7.22,70.89 21.67,90.75 14.45,19.87 41.99,29.8 82.62,29.8l70.43 0 0 132.73 -83.97 0c-87.59,0 -150.12,-18.06 -187.59,-54.18 -37.48,-36.12 -56.21,-95.26 -56.21,-177.43l0 -348.09 -112.43 0 0 -134.09 112.43 0 0 -201.81 153.05 0 0 201.81zm724.21 713.8l0 -579.71 -113.77 0 0 -134.09 113.77 0 0 -83.97c0,-79.46 18.74,-137.93 56.21,-175.4 37.48,-37.48 97.75,-56.21 180.83,-56.21l97.52 0 0 134.08 -88.05 0c-37.93,0 -63.21,9.93 -75.85,29.8 -12.64,19.86 -18.96,48.3 -18.96,85.32l0 66.37 182.85 0 0 134.09 -182.85 0 0 579.71 -151.7 0zm744.54 -725.99c56.88,0 106.99,9.03 150.34,27.09 43.34,18.05 80.14,43.12 110.39,75.17 30.25,32.06 53.05,70.66 68.39,115.81 15.35,45.15 23.03,95.27 23.03,150.34 0,55.98 -7.45,106.33 -22.34,151.03 -14.91,44.69 -37.25,83.3 -67.05,115.8 -29.79,32.5 -66.6,57.34 -110.39,74.49 -43.78,17.16 -94.58,25.74 -152.37,25.74 -56.89,0 -107,-8.81 -150.35,-26.42 -43.34,-17.61 -79.68,-42.43 -109.03,-74.49 -29.35,-32.06 -51.47,-70.66 -66.37,-115.81 -14.9,-45.15 -22.35,-95.26 -22.35,-150.34 0,-55.08 7.46,-105.2 22.35,-150.34 14.9,-45.16 37.25,-83.76 67.04,-115.81 29.8,-32.05 66.37,-57.11 109.71,-75.17 43.34,-18.06 93,-27.09 148.99,-27.09zm0 601.38c35.21,0 65.23,-6.1 90.07,-18.28 24.83,-12.19 45.15,-28.67 60.94,-49.44 15.8,-20.78 27.54,-45.16 35.21,-73.14 7.68,-27.99 11.52,-58.24 11.52,-90.76 0,-32.5 -3.84,-62.98 -11.52,-91.42 -7.68,-28.44 -19.41,-53.05 -35.21,-73.82 -15.8,-20.77 -36.12,-37.02 -60.94,-48.76 -24.84,-11.74 -54.86,-17.61 -90.07,-17.61 -34.32,0 -63.67,5.87 -88.05,17.61 -24.38,11.74 -44.7,27.99 -60.94,48.76 -16.26,20.77 -28.22,45.37 -35.9,73.82 -7.68,28.44 -11.51,58.92 -11.51,91.42 0,32.51 3.83,62.76 11.51,90.76 7.68,27.98 19.41,52.36 35.22,73.14 15.8,20.77 36.12,37.24 60.94,49.44 24.84,12.19 54.4,18.28 88.72,18.28zm488.53 124.61l0 -713.8 144.93 0 8.12 101.59c55.09,-75.85 130.03,-113.78 224.84,-113.78 9.03,0 17.84,0.23 26.42,0.68 8.57,0.46 16.48,1.13 23.69,2.04l0 143.57c-10.83,0 -21.44,0.23 -31.83,0.68 -10.38,0.46 -20.54,0.68 -30.48,0.68 -39.72,0.9 -72.91,7.9 -99.55,21 -26.64,13.09 -48.31,30.47 -65.02,52.15 -16.7,21.67 -28.67,47.17 -35.89,76.53 -7.23,29.35 -10.83,60.72 -10.83,94.13l0 334.55 -154.41 0zm1818.2 0l0 -713.8 147.64 0 8.12 98.88c26.19,-37.02 58.92,-64.79 98.2,-83.3 39.29,-18.51 81.04,-27.77 125.29,-27.77 50.57,0 93.24,8.58 128,25.73 34.77,17.16 63.21,40.64 85.33,70.44 22.13,29.79 37.93,65.01 47.4,105.64 9.48,40.64 14.23,84.88 14.23,132.73l0 391.44 -154.41 0 0 -368.41c0,-30.71 -2.03,-59.15 -6.1,-85.33 -4.06,-26.19 -11.96,-49.44 -23.69,-69.75 -11.75,-20.32 -28.22,-36.35 -49.45,-48.08 -21.22,-11.74 -48.53,-17.61 -81.94,-17.61 -31.61,0 -60.28,7.68 -86.01,23.03 -25.73,15.35 -45.6,35.21 -59.59,59.59 -14,24.38 -23.93,51.47 -29.8,81.27 -5.87,29.79 -8.8,58.23 -8.8,85.32l0 339.97 -154.41 0zm1489.49 0l-144.93 0 -8.12 -98.87c-26.19,37.92 -59.15,65.01 -98.88,81.26 -39.73,16.26 -84.42,25.28 -134.08,27.09 -55.09,-0.9 -102.5,-11.06 -142.22,-30.48 -39.73,-19.41 -72.69,-45.6 -98.88,-78.56 -26.19,-32.95 -45.37,-71.1 -57.56,-114.45 -12.19,-43.34 -18.29,-89.39 -18.29,-138.15 0,-53.28 7,-102.5 20.99,-147.64 14,-45.15 35,-84.43 62.99,-117.84 27.98,-33.41 62.31,-59.82 102.93,-79.24 40.64,-19.41 88.05,-29.12 142.22,-29.12 38.83,0 78.11,6.32 117.84,18.96 39.73,12.64 73.6,36.12 101.58,70.44l0 -321.01 154.41 0 0 957.6zm-356.23 -586.48c-34.31,0 -63.66,5.87 -88.04,17.61 -24.38,11.74 -44.47,27.99 -60.27,48.76 -15.81,20.78 -27.32,45.37 -34.54,73.82 -7.23,28.45 -10.84,58.92 -10.84,91.43 0,32.5 3.61,62.75 10.84,90.75 7.22,27.99 18.73,52.37 34.54,73.14 15.8,20.77 36.12,37.25 60.94,49.44 24.84,12.19 54.86,18.29 90.07,18.29 33.41,0 62.53,-6.55 87.36,-19.64 24.84,-13.1 45.6,-30.48 62.31,-52.15 16.7,-21.67 29.12,-46.51 37.25,-74.5 8.12,-27.98 12.19,-56.88 12.19,-86.69 0,-31.6 -3.83,-61.4 -11.51,-89.39 -7.68,-27.99 -19.64,-52.15 -35.89,-72.46 -16.26,-20.32 -37.02,-36.57 -62.31,-48.76 -25.28,-12.19 -55.99,-18.74 -92.11,-19.64zm519.69 586.48l0 -713.8 144.93 0 8.12 101.59c55.09,-75.85 130.03,-113.78 224.84,-113.78 9.03,0 17.84,0.23 26.42,0.68 8.57,0.46 16.48,1.13 23.69,2.04l0 143.57c-10.83,0 -21.44,0.23 -31.83,0.68 -10.38,0.46 -20.54,0.68 -30.48,0.68 -39.72,0.9 -72.91,7.9 -99.55,21 -26.64,13.09 -48.31,30.47 -65.02,52.15 -16.7,21.67 -28.67,47.17 -35.89,76.53 -7.23,29.35 -10.83,60.72 -10.83,94.13l0 334.55 -154.41 0zm831.22 -725.99c56.88,0 106.99,9.03 150.34,27.09 43.34,18.05 80.14,43.12 110.39,75.17 30.25,32.06 53.05,70.66 68.39,115.81 15.35,45.15 23.03,95.27 23.03,150.34 0,55.98 -7.45,106.33 -22.34,151.03 -14.91,44.69 -37.25,83.3 -67.05,115.8 -29.79,32.5 -66.6,57.34 -110.39,74.49 -43.78,17.16 -94.58,25.74 -152.37,25.74 -56.89,0 -107,-8.81 -150.35,-26.42 -43.34,-17.61 -79.68,-42.43 -109.03,-74.49 -29.35,-32.06 -51.47,-70.66 -66.37,-115.81 -14.9,-45.15 -22.35,-95.26 -22.35,-150.34 0,-55.08 7.46,-105.2 22.35,-150.34 14.9,-45.16 37.25,-83.76 67.04,-115.81 29.8,-32.05 66.37,-57.11 109.71,-75.17 43.34,-18.06 93,-27.09 148.99,-27.09zm0 601.38c35.21,0 65.23,-6.1 90.07,-18.28 24.83,-12.19 45.15,-28.67 60.94,-49.44 15.8,-20.78 27.54,-45.16 35.21,-73.14 7.68,-27.99 11.52,-58.24 11.52,-90.76 0,-32.5 -3.84,-62.98 -11.52,-91.42 -7.68,-28.44 -19.41,-53.05 -35.21,-73.82 -15.8,-20.77 -36.12,-37.02 -60.94,-48.76 -24.84,-11.74 -54.86,-17.61 -90.07,-17.61 -34.32,0 -63.67,5.87 -88.05,17.61 -24.38,11.74 -44.7,27.99 -60.94,48.76 -16.26,20.77 -28.22,45.37 -35.9,73.82 -7.68,28.44 -11.51,58.92 -11.51,91.42 0,32.51 3.83,62.76 11.51,90.76 7.68,27.98 19.41,52.36 35.22,73.14 15.8,20.77 36.12,37.24 60.94,49.44 24.84,12.19 54.4,18.28 88.72,18.28zm576.58 -885.81c27.98,0 51.24,8.58 69.75,25.73 18.51,17.16 27.77,40.64 27.77,70.44 0,28.89 -9.26,51.92 -27.77,69.08 -18.51,17.15 -41.77,25.73 -69.75,25.73 -29.8,0 -53.74,-8.58 -71.79,-25.73 -18.06,-17.16 -27.09,-40.19 -27.09,-69.08 0,-29.8 9.03,-53.28 27.09,-70.44 18.05,-17.15 41.99,-25.73 71.79,-25.73zm-78.56 1010.42l0 -713.8 154.4 0 0 713.8 -154.4 0zm1004.59 0l-144.93 0 -8.12 -98.87c-26.19,37.92 -59.15,65.01 -98.88,81.26 -39.73,16.26 -84.42,25.28 -134.08,27.09 -55.09,-0.9 -102.5,-11.06 -142.22,-30.48 -39.73,-19.41 -72.69,-45.6 -98.88,-78.56 -26.19,-32.95 -45.37,-71.1 -57.56,-114.45 -12.19,-43.34 -18.29,-89.39 -18.29,-138.15 0,-53.28 7,-102.5 20.99,-147.64 14,-45.15 35,-84.43 62.99,-117.84 27.98,-33.41 62.31,-59.82 102.93,-79.24 40.64,-19.41 88.05,-29.12 142.22,-29.12 38.83,0 78.11,6.32 117.84,18.96 39.73,12.64 73.6,36.12 101.58,70.44l0 -321.01 154.41 0 0 957.6zm-356.23 -586.48c-34.31,0 -63.66,5.87 -88.04,17.61 -24.38,11.74 -44.47,27.99 -60.27,48.76 -15.81,20.78 -27.32,45.37 -34.54,73.82 -7.23,28.45 -10.84,58.92 -10.84,91.43 0,32.5 3.61,62.75 10.84,90.75 7.22,27.99 18.73,52.37 34.54,73.14 15.8,20.77 36.12,37.25 60.94,49.44 24.84,12.19 54.86,18.29 90.07,18.29 33.41,0 62.53,-6.55 87.36,-19.64 24.84,-13.1 45.6,-30.48 62.31,-52.15 16.7,-21.67 29.12,-46.51 37.25,-74.5 8.12,-27.98 12.19,-56.88 12.19,-86.69 0,-31.6 -3.83,-61.4 -11.51,-89.39 -7.68,-27.99 -19.64,-52.15 -35.89,-72.46 -16.26,-20.32 -37.02,-36.57 -62.31,-48.76 -25.28,-12.19 -55.99,-18.74 -92.11,-19.64z"/>
  <path class="fil1" d="M1635.75 954.95l380.93 -954.94 50.09 0c29.23,0 54.26,15.65 66.8,41.75l432.08 863.1c16.69,32.35 16.69,67.84 0,100.19l-421.65 842.24c-19.83,38.61 -56.35,62.61 -100.18,62.61l-824.5 0c-13.57,0 -25.06,-6.26 -32.34,-17.75 -7.32,-11.48 -7.32,-24 -2.1,-36.53l450.86 -900.68z"/>
  <path class="fil2" d="M2052.17 0.01l-833.87 0c-13.58,0 -25.06,6.26 -32.35,17.75 -7.31,11.48 -7.31,24 -2.09,36.52l450.86 900.68 450.86 -900.68c6.27,-11.48 5.23,-25.06 -2.09,-36.52 -7.31,-11.49 -18.78,-17.75 -32.34,-17.75l1.03 0z"/>
  <path class="fil3" d="M942.43 1423.55l-380.93 954.95 -50.09 0c-29.24,0 -54.27,-15.66 -66.8,-41.75l-432.08 -863.1c-16.69,-32.35 -16.69,-67.84 0,-100.19l421.64 -842.24c19.83,-38.61 57.41,-62.61 100.19,-62.61l824.49 0c13.58,0 25.06,6.26 32.35,17.75 7.31,11.48 7.31,24 2.09,36.52l-450.86 900.68z"/>
  <path class="fil4" d="M524.96 2378.5l833.87 0c13.57,0 25.06,-6.26 32.34,-17.75 7.32,-11.48 7.32,-24 2.09,-36.53l-450.86 -900.68 -450.86 900.68c-6.26,11.49 -5.22,25.06 2.09,36.53 7.31,11.49 18.78,17.75 32.35,17.75l-1.03 0z"/>
 </g>
</svg>
