<svg width="62" height="58" viewBox="0 0 62 58" fill="none" xmlns="http://www.w3.org/2000/svg">
<g clip-path="url(#clip0_428_2035)">
<path fill-rule="evenodd" clip-rule="evenodd" d="M39.0757 23.0057L48.2529 0H49.4597C50.1637 0 50.7671 0.377142 51.0688 1.00571L61.478 21.7988C61.8803 22.5782 61.8803 23.4331 61.478 24.2125L51.3203 44.5028C50.8426 45.4331 49.9626 46.0113 48.9066 46.0113H29.0437C28.7169 46.0113 28.4403 45.8605 28.2643 45.5839C28.0883 45.3073 28.0883 45.0056 28.214 44.7039L39.0757 23.0057Z" fill="#3DDB86"/>
<path fill-rule="evenodd" clip-rule="evenodd" d="M49.1077 0H29.0186C28.6917 0 28.4152 0.150857 28.2392 0.427428C28.0632 0.703999 28.0632 1.00571 28.1889 1.30743L39.0506 23.0057L49.9123 1.30743C50.0631 1.03086 50.038 0.703999 49.862 0.427428C49.686 0.150857 49.4094 0 49.0826 0L49.1077 0Z" fill="#27B86B"/>
<path d="M22.7077 34.2947L13.5306 57.3004H12.3238C11.6198 57.3004 11.0163 56.9233 10.7146 56.2947L0.305498 35.5016C-0.0967871 34.7222 -0.0967871 33.8673 0.305498 33.0879L10.4632 12.7976C10.9409 11.8673 11.846 11.2891 12.8769 11.2891H32.7397C33.0666 11.2891 33.3432 11.4399 33.5191 11.7165C33.6951 11.9931 33.6952 12.2948 33.5694 12.5965L22.7077 34.2947Z" fill="#E0032F"/>
<path d="M12.6506 57.3004H32.7397C33.0665 57.3004 33.3431 57.1495 33.5191 56.8729C33.6951 56.5964 33.6951 56.2946 33.5694 55.9929L22.7077 34.2947L11.846 55.9929C11.6951 56.2695 11.7203 56.5964 11.8963 56.8729C12.0723 57.1495 12.3489 57.3004 12.6757 57.3004H12.6506Z" fill="#F05138"/>
</g>
<defs>
<clipPath id="clip0_428_2035">
<rect width="61.7836" height="57.3256" fill="white"/>
</clipPath>
</defs>
</svg>
