<svg width="32" height="32" viewBox="0 0 32 32" fill="none" xmlns="http://www.w3.org/2000/svg">
<g opacity="0.6">
<rect x="0.5" y="0.5" width="31" height="31" rx="3.5" stroke="white" stroke-opacity="0.6"/>
<path d="M11.7539 23.0698V13.624H9.08701V23.0698H11.7539ZM10.4208 12.3336C11.3508 12.3336 11.9297 11.6083 11.9297 10.7019C11.9124 9.77502 11.3508 9.06982 10.4385 9.06982C9.52623 9.06982 8.92969 9.77503 8.92969 10.7019C8.92969 11.6083 9.50842 12.3336 10.4034 12.3336H10.4208Z" fill="white" fill-opacity="0.6"/>
<path d="M13.9297 23.0698H16.8781V17.6134C16.8781 17.3214 16.8972 17.0297 16.9751 16.8209C17.1882 16.2375 17.6733 15.6332 18.4878 15.6332C19.5547 15.6332 19.9815 16.5292 19.9815 17.8427V23.0698H22.9297V17.4674C22.9297 14.4662 21.4751 13.0698 19.5353 13.0698C17.9447 13.0698 17.2464 14.0491 16.8584 14.7161H16.8781V13.299H13.9298C13.9684 14.2158 13.9298 23.0697 13.9298 23.0697L13.9297 23.0698Z" fill="white" fill-opacity="0.6"/>
</g>
</svg>
