<svg width="46" height="46" viewBox="0 0 46 46" fill="none" xmlns="http://www.w3.org/2000/svg">
<rect width="46" height="46" rx="8" fill="white" fill-opacity="0.5"/>
<path d="M15.5899 36V17.1084H9.36709V36H15.5899ZM12.4793 14.5276C14.6493 14.5276 16 13.0769 16 11.2641C15.9596 9.41038 14.6494 8 12.5205 8C10.3919 8 9 9.4104 9 11.2641C9 13.077 10.3504 14.5276 12.4387 14.5276H12.4793Z" fill="#3C3C43"/>
<path d="M19 36H25.2243V25.6329C25.2243 25.078 25.2648 24.5237 25.4291 24.1271C25.8791 23.0186 26.9033 21.8704 28.6227 21.8704C30.875 21.8704 31.7761 23.5728 31.7761 26.0684V35.9999H38V25.3554C38 19.6532 34.9292 17 30.834 17C27.4762 17 26.002 18.8606 25.1829 20.1279H25.2245V17.4355H19.0001C19.0818 19.1774 19.0001 35.9997 19.0001 35.9997L19 36Z" fill="#3C3C43"/>
</svg>
