<svg width="121" height="16" viewBox="0 0 121 16" fill="none" xmlns="http://www.w3.org/2000/svg">
<path fill-rule="evenodd" clip-rule="evenodd" d="M17.8484 13.9255C18.0564 13.4879 18.2606 13.0523 18.4644 12.6177C18.7323 12.0464 18.9994 11.4769 19.2727 10.9074C19.4132 10.9748 19.5512 11.0421 19.6877 11.1086L19.6878 11.1087C20.0187 11.2701 20.3407 11.4272 20.6676 11.5692C21.4043 11.89 22.1607 12.1608 22.9564 12.2009C23.3395 12.2209 23.7422 12.1808 24.0958 12.0605C24.7736 11.8299 24.921 11.0278 24.4004 10.5364C24.1744 10.3259 23.9092 10.1454 23.6342 10.0151C23.1806 9.78921 22.7239 9.57609 22.2676 9.36314L22.2676 9.36314L22.2676 9.36313L22.2674 9.36308L22.2674 9.36306L22.2674 9.36304L22.2673 9.36302C21.9134 9.19785 21.5597 9.03279 21.2079 8.86199C20.5006 8.52109 19.8228 8.10999 19.2629 7.51842C18.7816 7.01709 18.4771 6.41549 18.3396 5.73367C17.7403 2.74572 19.4103 0.40951 22.3768 0.0585762C24.0271 -0.13193 25.6184 0.158843 27.1803 0.690256C27.3825 0.761214 27.5888 0.836321 27.7992 0.912908C27.9158 0.955365 28.0336 0.998278 28.1528 1.04119C27.7697 2.10402 27.4062 3.13676 27.0329 4.19959C26.9707 4.17074 26.9118 4.1452 26.8561 4.12108C26.8151 4.10329 26.7758 4.08627 26.7382 4.06924C25.7756 3.61804 24.7638 3.28716 23.7029 3.19692C23.4181 3.16684 23.1234 3.19692 22.8385 3.24706C22.4161 3.32727 22.1116 3.57794 22.033 4.03916C21.9642 4.48034 22.1902 4.78114 22.534 4.9917C22.8617 5.1906 23.2134 5.36505 23.5602 5.53709L23.6735 5.5933C23.9555 5.73395 24.2427 5.8682 24.5303 6.00265C25.1245 6.28036 25.7206 6.55898 26.2766 6.89677C28.3787 8.18018 29.1154 10.7069 28.0643 12.8927C27.4357 14.2062 26.3453 14.9181 24.9996 15.2089C22.9073 15.6601 20.8935 15.3091 18.9486 14.4769C18.7432 14.3906 18.5452 14.2929 18.3478 14.1955L18.3478 14.1954C18.2242 14.1345 18.1009 14.0736 17.9761 14.0157C17.9368 13.9956 17.9073 13.9756 17.8484 13.9255ZM73.7709 0.339308C73.7709 0.339308 77.1107 0.329281 78.6136 0.359361C80.3916 0.389441 82.0713 0.820588 83.5546 1.86336C85.2638 3.07659 86.1577 4.7711 86.3542 6.86667C86.4917 8.32054 86.3247 9.7343 85.6862 11.0578C84.7923 12.9027 83.2894 13.9956 81.4132 14.6173C80.4702 14.9281 79.5075 15.0685 78.5252 15.0785C77.0518 15.0885 73.7807 15.0885 73.7807 15.0885L73.7709 0.339308ZM77.6804 3.38742V12.1106C77.8999 12.0818 78.1173 12.0581 78.3327 12.0347C78.7923 11.9846 79.2429 11.9355 79.6843 11.8399C80.9417 11.5592 81.7079 10.7269 82.0124 9.46358C82.2973 8.2704 82.2973 7.0672 81.9927 5.88406C81.757 4.95158 81.2364 4.21963 80.3523 3.81856C79.4977 3.42752 78.6038 3.36736 77.6804 3.38742ZM97.5231 9.27306V11.9502L103.024 11.9402V15.0585H93.6037V0.359353C93.702 0.349326 103.024 0.339299 103.024 0.339299V3.46762H97.5231V6.14474H103.024V9.27306H97.5231ZM62.5135 15.0986H66.8062L60.9123 0.359391H58.2307C58.2307 0.359391 52.3074 14.9883 52.2681 15.0986H56.2464L57.2484 12.7925H61.5803L62.5135 15.0986ZM59.3505 5.79385H59.4192C59.8855 7.14687 60.3602 8.4999 60.8434 9.87717L60.8435 9.87722L60.9516 10.1855H57.8672C58.3682 8.70158 58.8593 7.24771 59.3505 5.79385ZM43.4862 3.32728C44.223 3.42755 44.9008 3.71832 45.5786 4.14947C45.7013 3.83784 45.8231 3.52993 45.944 3.22432C46.2198 2.52699 46.491 1.84167 46.7573 1.1515C46.6591 1.09134 46.5903 1.05123 46.5216 1.02115C45.2839 0.399496 43.9774 0.0986955 42.6022 0.0285088C39.5472 -0.121891 36.9638 1.39214 35.7261 4.1595C34.6848 6.48568 34.6554 8.87203 35.5984 11.2283C36.4628 13.3941 38.0443 14.7677 40.3036 15.239C42.0423 15.5999 43.7416 15.4094 45.3919 14.7677C45.7416 14.6347 46.0818 14.4675 46.429 14.2969L46.4293 14.2967C46.5794 14.2229 46.7309 14.1485 46.885 14.0759C46.7016 13.6257 46.5241 13.1855 46.348 12.749C46.128 12.2035 45.9103 11.6638 45.6866 11.118C45.6104 11.1634 45.5506 11.1962 45.494 11.2273L45.4938 11.2274L45.4937 11.2274L45.4934 11.2276C45.4743 11.238 45.4556 11.2483 45.4366 11.2588C45.4251 11.2653 45.4135 11.2718 45.4017 11.2784C44.5962 11.7296 43.7515 12.0405 42.8183 12.1106C41.168 12.231 39.8812 11.3386 39.4097 9.71427C39.0757 8.55118 39.0757 7.36803 39.3508 6.19491C39.8321 4.11939 41.4234 3.02648 43.4862 3.32728ZM117.081 3.5378L113.908 3.54782V0.429528H121V15.1286C120.902 15.1387 113.908 15.1487 113.908 15.1487V12.0204H117.081V3.5378ZM7.09222 12.0304L3.91939 12.0404V3.55785H7.09222V0.429528C7.09222 0.429528 0.0982302 0.439555 0 0.449581V15.1487H7.09222V12.0304Z" fill="#F10837"/>
</svg>
