<svg width="157" height="21" viewBox="0 0 157 21" fill="none" xmlns="http://www.w3.org/2000/svg">
<g clip-path="url(#clip0_35_554)">
<path fill-rule="evenodd" clip-rule="evenodd" d="M23.5256 18.6374C23.7936 18.0646 24.0569 17.4944 24.3196 16.9255L24.3198 16.9251C24.665 16.1774 25.0092 15.4321 25.3615 14.6867C25.5424 14.7748 25.7201 14.8628 25.8959 14.9499L25.8963 14.9501L25.8964 14.9502C26.323 15.1615 26.738 15.3671 27.1594 15.553C28.109 15.973 29.0839 16.3274 30.1095 16.3799C30.6032 16.4061 31.1224 16.3536 31.5782 16.1961C32.4518 15.8942 32.6417 14.8442 31.9707 14.2011C31.6795 13.9255 31.3376 13.6892 30.9831 13.5186C30.3984 13.2229 29.8097 12.9439 29.2215 12.6652C28.7652 12.4489 28.3093 12.2328 27.8557 12.0092C26.9441 11.563 26.0705 11.0249 25.3488 10.2505C24.7284 9.59424 24.3359 8.80674 24.1586 7.91424C23.3863 4.00299 25.5387 0.944865 29.3624 0.48549C31.4895 0.236115 33.5407 0.61674 35.5538 1.31237C35.8144 1.40523 36.0803 1.50353 36.3514 1.60377L36.3515 1.60381C36.5018 1.65939 36.6537 1.71556 36.8073 1.77174C36.3135 3.16299 35.845 4.51486 35.3639 5.90612C35.2837 5.86835 35.2078 5.83493 35.136 5.80335L35.136 5.80334C35.0831 5.78005 35.0324 5.75777 34.9841 5.73549C33.7432 5.14487 32.4391 4.71174 31.0717 4.59362C30.7045 4.55424 30.3247 4.59362 29.9575 4.65924C29.4131 4.76424 29.0206 5.09237 28.9193 5.69612C28.8307 6.27362 29.1219 6.66737 29.565 6.94299C29.9874 7.20335 30.4407 7.43171 30.8878 7.65691L31.0337 7.73049C31.3972 7.9146 31.7674 8.09033 32.1382 8.26634L32.1382 8.26636C32.9041 8.62988 33.6724 8.99458 34.389 9.43674C37.0985 11.1167 38.0481 14.4242 36.6933 17.2855C35.883 19.0049 34.4776 19.9367 32.743 20.3174C30.0462 20.908 27.4506 20.4486 24.9436 19.3592C24.6789 19.2462 24.4237 19.1183 24.1693 18.9908L24.1692 18.9907L24.1691 18.9907L24.1689 18.9906C24.0098 18.9109 23.8509 18.8312 23.6902 18.7555C23.6395 18.7292 23.6016 18.703 23.5256 18.6374ZM95.6063 0.85299C95.6063 0.85299 99.9112 0.839865 101.848 0.87924C104.14 0.918615 106.305 1.48299 108.217 2.84799C110.42 4.43612 111.572 6.65424 111.825 9.39737C112.003 11.3005 111.787 13.1511 110.964 14.8836C109.812 17.2986 107.875 18.7292 105.457 19.543C104.241 19.9499 103.001 20.1336 101.734 20.1467C99.8352 20.1599 95.619 20.1599 95.619 20.1599L95.6063 0.85299ZM100.646 4.84299V16.2617C100.928 16.224 101.209 16.193 101.486 16.1623C102.079 16.0967 102.659 16.0325 103.228 15.9074C104.849 15.5399 105.837 14.4505 106.229 12.7967C106.596 11.2349 106.596 9.65987 106.204 8.11112C105.9 6.89049 105.229 5.93237 104.089 5.40737C102.988 4.89549 101.836 4.81674 100.646 4.84299ZM126.221 12.5474V16.0517L133.312 16.0386V20.1205H121.169V0.87924C121.296 0.866115 133.312 0.85299 133.312 0.85299V4.94799H126.221V8.45236H133.312V12.5474H126.221ZM81.0965 20.173H86.6295L79.0327 0.87924H75.5762C75.5762 0.87924 67.9414 20.0286 67.8908 20.173H73.0186L74.31 17.1542H79.8937L81.0965 20.173ZM77.0195 7.99299H77.1082C77.7081 9.76103 78.3189 11.5291 78.9406 13.3287L78.9435 13.337L79.0833 13.7417H75.1077C75.7534 11.7992 76.3865 9.89612 77.0195 7.99299ZM56.5716 4.76424C57.5211 4.89549 58.3948 5.27611 59.2684 5.84049C59.4266 5.43249 59.5836 5.02937 59.7395 4.62927C60.095 3.71652 60.4445 2.81949 60.7878 1.91612C60.6612 1.83737 60.5725 1.78487 60.4839 1.74549C58.8886 0.93174 57.2046 0.53799 55.432 0.446115C51.4944 0.24924 48.1645 2.23111 46.5691 5.85361C45.227 8.89861 45.1891 12.0224 46.4045 15.1067C47.5187 17.9417 49.5572 19.7399 52.4693 20.3567C54.7103 20.8292 56.9007 20.5799 59.0278 19.7399C59.4786 19.5658 59.917 19.3469 60.3646 19.1235C60.5582 19.0269 60.7536 18.9294 60.9524 18.8342C60.716 18.245 60.4871 17.6687 60.2602 17.0973C59.9766 16.3833 59.696 15.6769 59.4077 14.9624C59.3093 15.0219 59.2322 15.0648 59.159 15.1056C59.1193 15.1277 59.0807 15.1492 59.0405 15.1724C58.0023 15.763 56.9134 16.1699 55.7106 16.2617C53.5835 16.4192 51.9249 15.2511 51.3171 13.1249C50.8866 11.6024 50.8866 10.0536 51.2411 8.51799C51.8616 5.80112 53.9127 4.37049 56.5716 4.76424ZM151.43 5.03987L147.34 5.05299V0.971115H156.482V20.2124C156.355 20.2255 147.34 20.2386 147.34 20.2386V16.1436H151.43V5.03987ZM9.66147 16.1567L5.57188 16.1699V5.06611H9.66147V0.971115C9.66147 0.971115 0.646632 0.98424 0.52002 0.997365V20.2386H9.66147V16.1567Z" fill="#8F8F8F"/>
</g>
<defs>
<clipPath id="clip0_35_554">
<rect width="157" height="21" fill="white"/>
</clipPath>
</defs>
</svg>
