<svg width="135" height="18" viewBox="0 0 135 18" fill="none" xmlns="http://www.w3.org/2000/svg">
<g clip-path="url(#clip0_49_177)">
<path fill-rule="evenodd" clip-rule="evenodd" d="M20.9116 14.5082L20.9119 14.5076L20.912 14.5073L20.9122 14.507L20.9123 14.5068C21.2091 13.866 21.5049 13.2274 21.8077 12.5887C21.9635 12.6642 22.1164 12.7398 22.2677 12.8144C22.6345 12.9956 22.9914 13.1719 23.3537 13.3312C24.1702 13.6912 25.0086 13.9949 25.8904 14.0399C26.315 14.0624 26.7614 14.0174 27.1533 13.8824C27.9045 13.6237 28.0678 12.7237 27.4908 12.1724C27.2404 11.9362 26.9465 11.7337 26.6416 11.5874C26.1389 11.334 25.6326 11.0949 25.1268 10.8559L25.1268 10.8559L25.1267 10.8558L25.1266 10.8558C24.7344 10.6705 24.3424 10.4853 23.9525 10.2937C23.1686 9.91119 22.4174 9.44994 21.7969 8.78619C21.2634 8.22369 20.9259 7.54869 20.7735 6.78369C20.1094 3.43119 21.9602 0.809937 25.2481 0.416187C27.0771 0.202437 28.8408 0.528687 30.5719 1.12494C30.796 1.20455 31.0247 1.28883 31.2578 1.37476L31.2583 1.37495L31.2585 1.37503L31.2598 1.3755C31.3884 1.42289 31.5184 1.47079 31.6497 1.51869C31.2251 2.71119 30.8223 3.86994 30.4086 5.06244C30.3396 5.03006 30.2743 5.00141 30.2126 4.97435C30.1671 4.95439 30.1235 4.93529 30.0819 4.91619C29.015 4.40994 27.8936 4.03869 26.7178 3.93744C26.4021 3.90369 26.0755 3.93744 25.7598 3.99369C25.2916 4.08369 24.9541 4.36494 24.867 4.88244C24.7908 5.37744 25.0412 5.71494 25.4223 5.95119C25.7855 6.17436 26.1753 6.37009 26.5597 6.56312L26.6852 6.62619C26.9977 6.784 27.316 6.93462 27.6349 7.08549C28.2934 7.39708 28.9541 7.70969 29.5703 8.08869C31.9001 9.52869 32.7166 12.3637 31.5517 14.8162C30.8549 16.2899 29.6465 17.0887 28.1549 17.4149C25.836 17.9212 23.6041 17.5274 21.4485 16.5937C21.2208 16.4968 21.0014 16.3872 20.7826 16.2779C20.6457 16.2095 20.509 16.1412 20.3707 16.0762C20.3271 16.0537 20.2944 16.0312 20.2291 15.9749C20.4595 15.4842 20.6858 14.9956 20.9116 14.5082ZM82.2094 0.731187C82.2094 0.731187 85.911 0.719937 87.5767 0.753687C89.5473 0.787437 91.409 1.27119 93.0529 2.44119C94.9473 3.80244 95.938 5.70369 96.1557 8.05494C96.3082 9.68619 96.1231 11.2724 95.4154 12.7574C94.4247 14.8274 92.759 16.0537 90.6795 16.7512C89.6344 17.0999 88.5674 17.2574 87.4787 17.2687C85.8456 17.2799 82.2203 17.2799 82.2203 17.2799L82.2094 0.731187ZM86.5424 4.15119V13.9387C86.7856 13.9064 87.0266 13.8798 87.2653 13.8535C87.7748 13.7973 88.2741 13.7422 88.7634 13.6349C90.1569 13.3199 91.0061 12.3862 91.3436 10.9687C91.6594 9.62994 91.6594 8.27994 91.3219 6.95244C91.0606 5.90619 90.4836 5.08494 89.5037 4.63494C88.5565 4.19619 87.5658 4.12869 86.5424 4.15119ZM108.534 10.7549V13.7587L114.631 13.7474V17.2462H104.19V0.753687C104.299 0.742437 114.631 0.731187 114.631 0.731187V4.24119H108.534V7.24494H114.631V10.7549H108.534ZM69.7327 17.2912H74.4904L67.9582 0.753687H64.986C64.986 0.753687 58.4211 17.1674 58.3775 17.2912H62.7868L63.8973 14.7037H68.6985L69.7327 17.2912ZM66.2271 6.85119H66.3033C66.8189 8.36595 67.3439 9.88072 67.8783 11.4225L67.8785 11.4233L67.881 11.4305L68.0017 11.7787H64.5832C65.0955 10.2424 65.5985 8.73479 66.1009 7.22942L66.1689 7.02557L66.1958 6.94487L66.2271 6.85119ZM48.6444 4.08369C49.461 4.19619 50.2122 4.52244 50.9634 5.00619C51.0987 4.65844 51.2329 4.31483 51.3662 3.97379L51.3685 3.96795C51.6742 3.18562 51.9747 2.41675 52.2698 1.64244C52.161 1.57494 52.0848 1.52994 52.0086 1.49619C50.6368 0.798687 49.1888 0.461187 47.6646 0.382437C44.2787 0.213687 41.4154 1.91244 40.0436 5.01744C38.8896 7.62744 38.8569 10.3049 39.9021 12.9487C40.8602 15.3787 42.613 16.9199 45.117 17.4487C47.044 17.8537 48.9275 17.6399 50.7565 16.9199C51.1441 16.7707 51.5211 16.5832 51.906 16.3916L51.9062 16.3915L51.9067 16.3913C52.073 16.3086 52.2407 16.2251 52.4114 16.1437C52.2082 15.6389 52.0115 15.1451 51.8165 14.6556L51.8161 14.6546C51.5723 14.0427 51.3311 13.4373 51.0832 12.8249C50.9986 12.8759 50.9322 12.9128 50.8694 12.9477C50.8352 12.9667 50.802 12.9851 50.7674 13.0049C49.8747 13.5112 48.9384 13.8599 47.9041 13.9387C46.0751 14.0737 44.6489 13.0724 44.1263 11.2499C43.7561 9.94494 43.7561 8.61744 44.061 7.30119C44.5944 4.97244 46.3582 3.74619 48.6444 4.08369ZM130.211 4.31994L126.694 4.33119V0.832437H134.555V17.3249C134.446 17.3362 126.694 17.3474 126.694 17.3474V13.8374H130.211V4.31994ZM8.30775 13.8487L4.79122 13.8599V4.34244H8.30775V0.832437C8.30775 0.832437 0.556137 0.843687 0.447266 0.854937V17.3474H8.30775V13.8487Z" fill="white"/>
</g>
<defs>
<clipPath id="clip0_49_177">
<rect width="135" height="18" fill="white"/>
</clipPath>
</defs>
</svg>
