<svg width="44" height="44" viewBox="0 0 44 44" fill="none" xmlns="http://www.w3.org/2000/svg">
<rect width="44" height="44" rx="8" fill="white" fill-opacity="0.5"/>
<g clip-path="url(#clip0_35_541)">
<path d="M34.845 33.8377L24.7938 19.091L23.6574 17.4231L16.466 6.87421L15.8702 6H7.03455L9.18924 9.16225L18.75 23.1899L19.8864 24.8559L27.5683 36.1278L28.1643 37.001H36.9999L34.845 33.8377ZM29.2133 34.9815L21.233 23.2723L20.0965 21.6055L10.8363 8.01798H14.8199L22.3093 19.0063L23.4458 20.6731L33.1982 34.9813L29.2133 34.9815Z" fill="#3C3C43"/>
<path d="M20.0973 21.6055L21.2338 23.2723L19.8865 24.8557L9.54916 37H7L18.75 23.1897L20.0973 21.6055Z" fill="#3C3C43"/>
<path d="M35.9363 6L24.7931 19.091L23.4458 20.6734L22.3093 19.0065L23.6566 17.4231L31.2049 8.55122L33.3871 6H35.9363Z" fill="#3C3C43"/>
</g>
<defs>
<clipPath id="clip0_35_541">
<rect width="30" height="31" fill="white" transform="translate(7 6)"/>
</clipPath>
</defs>
</svg>
